<svg width="260" height="161" viewBox="0 0 260 161" fill="none" xmlns="http://www.w3.org/2000/svg">
<path d="M260 0H198.095L179.524 49.5238H241.429L260 0Z" fill="#439BFF"/>
<path d="M191.906 0H130.001L111.43 49.5238H173.335L191.906 0Z" fill="#439BFF"/>
<path d="M123.809 0H61.9038L43.3324 49.5238H105.237L123.809 0Z" fill="#439BFF"/>
<path d="M238.332 55.7148H176.427L157.856 105.239H219.761L238.332 55.7148Z" fill="#439BFF"/>
<path d="M216.668 111.43H154.763L136.192 160.954H198.097L216.668 111.43Z" fill="#439BFF"/>
<path d="M148.57 111.43H86.6656L68.0941 160.954H129.999L148.57 111.43Z" fill="#439BFF"/>
<path d="M80.4766 111.43H18.5718L0.000376821 160.954H61.9051L80.4766 111.43Z" fill="#439BFF"/>
<path d="M170.238 55.7148H108.334L89.7621 105.239H151.667L170.238 55.7148Z" fill="#439BFF"/>
<path d="M102.145 55.7148H40.2398L21.6683 105.239H83.5731L102.145 55.7148Z" fill="#439BFF"/>
</svg>
