<svg width="260" height="174" viewBox="0 0 260 174" fill="none" xmlns="http://www.w3.org/2000/svg">
<path d="M53.099 3.56326C53.7335 1.44834 55.6801 0 57.8881 0H112.448C115.797 0 118.199 3.22868 117.237 6.43674L103.987 50.6034C103.352 52.7183 101.406 54.1667 99.1978 54.1667H44.6381C41.2888 54.1667 38.8866 50.938 39.849 47.7299L53.099 3.56326Z" fill="#439BFF"/>
<path d="M193.931 3.56326C194.565 1.44834 196.512 0 198.72 0H253.28C256.629 0 259.031 3.22868 258.069 6.43674L244.819 50.6034C244.185 52.7183 242.238 54.1667 240.03 54.1667H185.47C182.121 54.1667 179.719 50.938 180.681 47.7299L193.931 3.56326Z" fill="#439BFF"/>
<path d="M123.513 3.56326C124.148 1.44834 126.094 0 128.302 0H182.862C186.211 0 188.613 3.22868 187.651 6.43674L174.401 50.6034C173.767 52.7183 171.82 54.1667 169.612 54.1667H115.052C111.703 54.1667 109.301 50.938 110.263 47.7299L123.513 3.56326Z" fill="#439BFF"/>
<path d="M34.1381 63.1453C34.7725 61.0304 36.7191 59.582 38.9272 59.582H93.4869C96.8362 59.582 99.2384 62.8107 98.276 66.0188L85.026 110.185C84.3915 112.3 82.4449 113.749 80.2369 113.749H25.6772C22.3279 113.749 19.9256 110.52 20.8881 107.312L34.1381 63.1453Z" fill="#439BFF"/>
<path d="M174.974 63.1453C175.608 61.0304 177.555 59.582 179.763 59.582H234.323C237.672 59.582 240.074 62.8107 239.112 66.0188L225.862 110.185C225.227 112.3 223.281 113.749 221.073 113.749H166.513C163.164 113.749 160.762 110.52 161.724 107.312L174.974 63.1453Z" fill="#439BFF"/>
<path d="M104.556 63.1453C105.19 61.0304 107.137 59.582 109.345 59.582H163.905C167.254 59.582 169.656 62.8107 168.694 66.0188L155.444 110.185C154.81 112.3 152.863 113.749 150.655 113.749H96.0952C92.7458 113.749 90.3436 110.52 91.306 107.312L104.556 63.1453Z" fill="#439BFF"/>
<path d="M15.181 122.731C15.8155 120.616 17.7621 119.168 19.9702 119.168H74.5298C77.8792 119.168 80.2814 122.397 79.319 125.605L66.069 169.771C65.4345 171.886 63.4879 173.335 61.2798 173.335H6.72016C3.37084 173.335 0.968604 170.106 1.93102 166.898L15.181 122.731Z" fill="#439BFF"/>
<path d="M156.013 122.731C156.648 120.616 158.594 119.168 160.802 119.168H215.362C218.711 119.168 221.113 122.397 220.151 125.605L206.901 169.771C206.267 171.886 204.32 173.335 202.112 173.335H147.552C144.203 173.335 141.801 170.106 142.763 166.898L156.013 122.731Z" fill="#439BFF"/>
<path d="M85.599 122.731C86.2335 120.616 88.1801 119.168 90.3881 119.168H144.948C148.297 119.168 150.699 122.397 149.737 125.605L136.487 169.771C135.852 171.886 133.906 173.335 131.698 173.335H77.1381C73.7888 173.335 71.3866 170.106 72.349 166.898L85.599 122.731Z" fill="#439BFF"/>
</svg>
