<svg width="5533" height="720" viewBox="0 0 5533 720" fill="none" xmlns="http://www.w3.org/2000/svg">
<path d="M41 710C29 710 19 706 11 698C3.66667 690 6.97374e-06 680.333 6.97374e-06 669V50C6.97374e-06 38.6666 3.66667 29.3333 11 22C19 14 28.6667 9.99995 40 9.99995H391C402.333 9.99995 412 13.6666 420 21C428 28.3333 432 37.6666 432 49C432 59.6666 428 68.6666 420 76C412 83.3333 402.333 87 391 87H76L82 79V324L77 313H346C357.333 313 367 317 375 325C383 332.333 387 341.667 387 353C387 363 383 372 375 380C367 387.333 357.333 391 346 391H75L82 382V669C82 680.333 78 690 70 698C62 706 52.3333 710 41 710ZM1073.43 8.99997C1084.76 8.99997 1094.43 12.6666 1102.43 19.9999C1110.43 26.6666 1114.43 35.6666 1114.43 47C1114.43 52.3333 1113.1 58.3333 1110.43 65L849.43 684C845.43 692.667 839.763 699.333 832.43 704C825.763 708 818.43 710 810.43 710C803.096 709.333 796.096 707 789.43 703C782.763 698.333 777.763 692 774.43 684L514.43 65.9999C513.096 63.3333 512.096 60.6667 511.43 58C510.763 54.6667 510.43 51.3333 510.43 47.9999C510.43 35.3333 514.763 25.6666 523.43 19C532.763 11.6666 541.763 7.99998 550.43 7.99998C568.43 7.99998 581.43 17.3333 589.43 36L828.43 606H805.43L1036.43 33.9999C1044.43 17.3333 1056.76 8.99997 1073.43 8.99997ZM1274.38 9.99995H1630.38C1641.71 9.99995 1651.38 13.6666 1659.38 21C1667.38 28.3333 1671.38 37.6666 1671.38 49C1671.38 60.3333 1667.38 69.6666 1659.38 77C1651.38 83.6666 1641.71 87 1630.38 87H1308.38L1317.38 70V323L1307.38 312H1585.38C1596.71 312 1606.38 315.667 1614.38 323C1622.38 330.333 1626.38 339.667 1626.38 351C1626.38 362.333 1622.38 371.667 1614.38 379C1606.38 385.667 1596.71 389 1585.38 389H1310.38L1317.38 380V639L1311.38 632H1630.38C1641.71 632 1651.38 636 1659.38 644C1667.38 652 1671.38 661 1671.38 671C1671.38 682.333 1667.38 691.667 1659.38 699C1651.38 706.333 1641.71 710 1630.38 710H1274.38C1263.04 710 1253.38 706 1245.38 698C1238.04 690 1234.38 680.333 1234.38 669V50C1234.38 38.6666 1238.04 29.3333 1245.38 22C1253.38 14 1263.04 9.99995 1274.38 9.99995ZM2284.08 720C2234.74 720 2191.41 712.667 2154.08 698C2116.74 683.333 2080.74 660 2046.08 628C2041.41 623.333 2037.41 618.333 2034.08 613C2031.41 607 2030.08 600.667 2030.08 594C2030.08 583.333 2033.74 574 2041.08 566C2049.08 557.333 2058.74 553 2070.08 553C2079.41 553 2087.74 556.667 2095.08 564C2121.08 589.333 2149.08 608.667 2179.08 622C2209.74 635.333 2244.08 642 2282.08 642C2311.41 642 2337.74 637.333 2361.08 628C2385.08 618.667 2404.08 605.667 2418.08 589C2432.08 572.333 2439.08 553 2439.08 531C2438.41 504.333 2430.41 482.333 2415.08 465C2400.41 447.667 2379.74 433.333 2353.08 422C2327.08 410 2296.74 400 2262.08 392C2231.41 384.667 2203.08 375.667 2177.08 365C2151.74 354.333 2129.74 341.333 2111.08 326C2092.41 310 2077.74 291 2067.08 269C2057.08 246.333 2052.08 220 2052.08 190C2052.08 152 2062.08 118.667 2082.08 90C2102.08 61.3333 2129.74 39.3333 2165.08 24C2200.41 7.99996 2241.08 -3.8147e-05 2287.08 -3.8147e-05C2327.74 -3.8147e-05 2366.08 6.66662 2402.08 19.9999C2438.74 33.3333 2468.08 51.6666 2490.08 74.9999C2503.41 87.6666 2510.08 99.9999 2510.08 112C2510.08 122 2505.74 131.333 2497.08 140C2489.08 148 2479.74 152 2469.08 152C2461.74 152 2455.08 149.333 2449.08 144C2437.74 131.333 2423.41 120 2406.08 110C2388.74 100 2369.74 92 2349.08 86C2328.41 80 2307.74 77 2287.08 77C2256.41 77 2229.41 81.6666 2206.08 91C2182.74 99.6667 2164.41 112.333 2151.08 129C2138.41 145 2132.08 164.333 2132.08 187C2132.08 212.333 2139.41 233.333 2154.08 250C2168.74 266 2188.41 279.333 2213.08 290C2237.74 300 2265.08 309 2295.08 317C2327.74 325 2357.74 334.333 2385.08 345C2413.08 355 2437.08 367.667 2457.08 383C2477.08 398.333 2492.41 418 2503.08 442C2514.41 465.333 2520.08 494.333 2520.08 529C2520.08 565.667 2509.74 598.333 2489.08 627C2468.41 655.667 2440.08 678.333 2404.08 695C2368.74 711 2328.74 719.333 2284.08 720ZM2871.3 710C2859.3 710 2849.3 706 2841.3 698C2833.3 690 2829.3 680.333 2829.3 669V51H2914.3V669C2914.3 680.333 2910.3 690 2902.3 698C2894.3 706 2883.96 710 2871.3 710ZM2639.3 86C2627.96 86 2618.3 82.6667 2610.3 76C2602.96 68.6666 2599.3 59.3333 2599.3 47.9999C2599.3 36.6666 2602.96 27.6666 2610.3 21C2618.3 13.6666 2627.96 9.99995 2639.3 9.99995H3104.3C3115.63 9.99995 3125.3 13.6666 3133.3 21C3141.3 27.6666 3145.3 36.6666 3145.3 47.9999C3145.3 59.9999 3141.3 69.3333 3133.3 76C3125.3 82.6667 3115.63 86 3104.3 86H2639.3ZM3457.82 114L3222.82 686C3220.15 694 3215.49 700.333 3208.82 705C3202.15 709.667 3195.15 712 3187.82 712C3175.15 712 3165.82 708.667 3159.82 702C3153.82 695.333 3150.82 687.333 3150.82 678C3150.15 673.333 3150.82 668.333 3152.82 663L3411.82 33C3415.15 23.6666 3420.15 17 3426.82 13C3434.15 8.33329 3442.15 6.33329 3450.82 6.99999C3459.49 6.99999 3467.15 9.33331 3473.82 14C3481.15 18.6666 3486.15 25 3488.82 33L3746.82 657C3748.82 662.333 3749.82 667.667 3749.82 673C3749.82 685 3745.82 694.667 3737.82 702C3729.82 708.667 3720.82 712 3710.82 712C3702.82 712 3695.49 709.667 3688.82 705C3682.15 700.333 3677.15 693.667 3673.82 685L3435.82 113L3457.82 114ZM3272.82 523L3306.82 445H3603.82L3618.82 523H3272.82ZM4275.58 8.99997C4286.91 8.99997 4296.58 12.6666 4304.58 19.9999C4312.58 26.6666 4316.58 35.6666 4316.58 47C4316.58 52.3333 4315.24 58.3333 4312.58 65L4051.58 684C4047.58 692.667 4041.91 699.333 4034.58 704C4027.91 708 4020.58 710 4012.58 710C4005.24 709.333 3998.24 707 3991.58 703C3984.91 698.333 3979.91 692 3976.58 684L3716.58 65.9999C3715.24 63.3333 3714.24 60.6667 3713.58 58C3712.91 54.6667 3712.58 51.3333 3712.58 47.9999C3712.58 35.3333 3716.91 25.6666 3725.58 19C3734.91 11.6666 3743.91 7.99998 3752.58 7.99998C3770.58 7.99998 3783.58 17.3333 3791.58 36L4030.58 606H4007.58L4238.58 33.9999C4246.58 17.3333 4258.91 8.99997 4275.58 8.99997ZM4737.52 9.99995C4796.19 9.99995 4841.19 25.3333 4872.52 56C4904.52 86 4920.52 128.667 4920.52 184C4920.52 213.333 4913.86 240.333 4900.52 265C4887.19 289.667 4867.52 309.333 4841.52 324C4816.19 338.667 4784.86 346.667 4747.52 348L4745.52 320C4768.86 320 4792.86 323.333 4817.52 330C4842.19 336.667 4864.86 347.333 4885.52 362C4906.86 376.667 4923.86 396 4936.52 420C4949.86 444 4956.52 473.667 4956.52 509C4956.52 547 4950.19 579 4937.52 605C4924.86 630.333 4907.86 651 4886.52 667C4865.86 682.333 4842.52 693.333 4816.52 700C4791.19 706.667 4765.52 710 4739.52 710H4476.52C4465.19 710 4455.52 706 4447.52 698C4440.19 690 4436.52 680.333 4436.52 669V50C4436.52 38.6666 4440.19 29.3333 4447.52 22C4455.52 14 4465.19 9.99995 4476.52 9.99995H4737.52ZM4725.52 88.9999H4510.52L4522.52 70.9999V320L4511.52 307H4727.52C4756.86 307 4781.86 297.667 4802.52 279C4823.86 259.667 4834.52 231.333 4834.52 194C4834.52 160.667 4824.86 135 4805.52 117C4786.19 98.3333 4759.52 88.9999 4725.52 88.9999ZM4733.52 387H4515.52L4522.52 380V641L4514.52 632H4736.52C4775.86 632 4807.86 622 4832.52 602C4857.86 582 4870.52 551 4870.52 509C4870.52 476.333 4863.86 451.333 4850.52 434C4837.19 416 4819.86 403.667 4798.52 397C4777.86 390.333 4756.19 387 4733.52 387ZM5492.41 5.99994C5503.74 5.99994 5513.07 10.3333 5520.41 19C5528.41 27 5532.41 36.3333 5532.41 47C5532.41 51 5531.74 55.3333 5530.41 60C5529.74 64 5528.07 68 5525.41 72L5293.41 395L5306.41 346V669C5306.41 680.333 5302.41 690 5294.41 698C5287.07 706 5278.07 710 5267.41 710C5255.41 710 5245.41 706 5237.41 698C5230.07 690 5226.41 680.333 5226.41 669V354L5233.41 380L5008.41 76C5004.41 70.6667 5001.41 65.6666 4999.41 61C4998.07 55.6666 4997.41 50.6667 4997.41 46C4997.41 34.6666 5002.07 25.3333 5011.41 18C5020.74 9.99995 5030.07 5.99994 5039.41 5.99994C5052.74 5.99994 5063.74 12.3333 5072.41 24.9999L5279.41 309L5260.41 306L5459.41 26C5468.07 12.6666 5479.07 5.99994 5492.41 5.99994Z" fill="#E6E6E6" fill-opacity="0.5"/>
</svg>
