<svg width="512" height="317" viewBox="0 0 512 317" fill="none" xmlns="http://www.w3.org/2000/svg">
<path d="M509.466 6.75563C510.692 3.48687 508.276 0 504.785 0H393.56C391.476 0 389.61 1.29286 388.878 3.24438L356.057 90.7683C354.831 94.0371 357.247 97.524 360.738 97.524H471.963C474.048 97.524 475.913 96.2311 476.645 94.2796L509.466 6.75563Z" fill="#439BFF"/>
<path d="M375.373 6.75563C376.599 3.48687 374.182 0 370.691 0H259.466C257.382 0 255.516 1.29286 254.785 3.24438L221.963 90.7683C220.737 94.0371 223.154 97.524 226.645 97.524H337.87C339.954 97.524 341.819 96.2311 342.551 94.2796L375.373 6.75563Z" fill="#439BFF"/>
<path d="M241.275 6.75562C242.501 3.48687 240.084 0 236.593 0H125.369C123.284 0 121.419 1.29286 120.687 3.24438L87.8654 90.7683C86.6396 94.0371 89.056 97.5239 92.547 97.5239H203.772C205.856 97.5239 207.722 96.2311 208.454 94.2796L241.275 6.75562Z" fill="#439BFF"/>
<path d="M466.799 116.47C468.024 113.202 465.608 109.715 462.117 109.715H350.892C348.808 109.715 346.942 111.008 346.21 112.959L313.389 200.483C312.163 203.752 314.579 207.239 318.07 207.239H429.295C431.38 207.239 433.245 205.946 433.977 203.994L466.799 116.47Z" fill="#439BFF"/>
<path d="M424.134 226.185C425.36 222.917 422.944 219.43 419.453 219.43H308.228C306.144 219.43 304.278 220.723 303.546 222.674L270.725 310.198C269.499 313.467 271.915 316.954 275.406 316.954H386.631C388.716 316.954 390.581 315.661 391.313 313.709L424.134 226.185Z" fill="#439BFF"/>
<path d="M290.037 226.185C291.263 222.917 288.846 219.43 285.355 219.43H174.13C172.046 219.43 170.18 220.723 169.449 222.674L136.627 310.198C135.401 313.467 137.818 316.954 141.309 316.954H252.534C254.618 316.954 256.484 315.661 257.215 313.709L290.037 226.185Z" fill="#439BFF"/>
<path d="M155.943 226.185C157.169 222.917 154.752 219.43 151.261 219.43H40.0365C37.9523 219.43 36.0867 220.723 35.3548 222.674L2.53336 310.198C1.30757 313.467 3.72397 316.954 7.215 316.954H118.44C120.524 316.954 122.39 315.661 123.122 313.709L155.943 226.185Z" fill="#439BFF"/>
<path d="M332.705 116.47C333.931 113.202 331.514 109.715 328.023 109.715H216.798C214.714 109.715 212.848 111.008 212.117 112.959L179.295 200.483C178.069 203.752 180.486 207.239 183.977 207.239H295.202C297.286 207.239 299.151 205.946 299.883 203.994L332.705 116.47Z" fill="#439BFF"/>
<path d="M198.611 116.47C199.837 113.202 197.42 109.715 193.929 109.715H82.7044C80.6202 109.715 78.7546 111.008 78.0228 112.959L45.2013 200.483C43.9755 203.752 46.3919 207.239 49.883 207.239H161.108C163.192 207.239 165.058 205.946 165.79 203.994L198.611 116.47Z" fill="#439BFF"/>
</svg>
