<svg width="480" height="320" viewBox="0 0 480 320" fill="none" xmlns="http://www.w3.org/2000/svg">
<path d="M98.9349 3.56324C99.5694 1.44833 101.516 0 103.724 0H213.284C216.633 0 219.035 3.22869 218.073 6.43676L191.073 96.4355C190.438 98.5504 188.492 99.9987 186.284 99.9987H76.7241C73.3748 99.9987 70.9725 96.77 71.935 93.562L98.9349 3.56324Z" fill="#439BFF"/>
<path d="M358.931 3.56324C359.565 1.44833 361.512 0 363.72 0H473.28C476.629 0 479.031 3.22869 478.069 6.43676L451.069 96.4355C450.434 98.5504 448.488 99.9987 446.28 99.9987H336.72C333.371 99.9987 330.969 96.77 331.931 93.562L358.931 3.56324Z" fill="#439BFF"/>
<path d="M228.927 3.56324C229.562 1.44833 231.508 0 233.716 0H343.276C346.625 0 349.027 3.22869 348.065 6.43676L321.065 96.4355C320.431 98.5504 318.484 99.9987 316.276 99.9987H206.716C203.367 99.9987 200.965 96.77 201.927 93.562L228.927 3.56324Z" fill="#439BFF"/>
<path d="M63.9271 113.559C64.5616 111.444 66.5082 109.996 68.7162 109.996H178.276C181.625 109.996 184.027 113.225 183.065 116.433L156.065 206.432C155.431 208.546 153.484 209.995 151.276 209.995H41.7163C38.367 209.995 35.9647 206.766 36.9271 203.558L63.9271 113.559Z" fill="#439BFF"/>
<path d="M323.935 113.559C324.569 111.444 326.516 109.996 328.724 109.996H438.284C441.633 109.996 444.035 113.225 443.073 116.433L416.073 206.432C415.438 208.546 413.492 209.995 411.284 209.995H301.724C298.375 209.995 295.973 206.766 296.935 203.558L323.935 113.559Z" fill="#439BFF"/>
<path d="M193.931 113.559C194.565 111.444 196.512 109.996 198.72 109.996H308.28C311.629 109.996 314.031 113.225 313.069 116.433L286.069 206.432C285.434 208.546 283.488 209.995 281.28 209.995H171.72C168.371 209.995 165.969 206.766 166.931 203.558L193.931 113.559Z" fill="#439BFF"/>
<path d="M28.931 223.563C29.5655 221.448 31.5121 220 33.7201 220H143.28C146.629 220 149.031 223.229 148.069 226.437L121.069 316.435C120.434 318.55 118.488 319.999 116.28 319.999H6.72018C3.37086 319.999 0.96862 316.77 1.93105 313.562L28.931 223.563Z" fill="#439BFF"/>
<path d="M288.927 223.563C289.562 221.448 291.508 220 293.716 220H403.276C406.625 220 409.027 223.229 408.065 226.437L381.065 316.435C380.431 318.55 378.484 319.999 376.276 319.999H266.716C263.367 319.999 260.965 316.77 261.927 313.562L288.927 223.563Z" fill="#439BFF"/>
<path d="M158.935 223.563C159.569 221.448 161.516 220 163.724 220H273.284C276.633 220 279.035 223.229 278.073 226.437L251.073 316.435C250.438 318.55 248.492 319.999 246.284 319.999H136.724C133.375 319.999 130.973 316.77 131.935 313.562L158.935 223.563Z" fill="#439BFF"/>
</svg>
